<svg width="85" height="41" viewBox="0 0 158 41" fill="none" xmlns="http://www.w3.org/2000/svg">
<path fill-rule="evenodd" clip-rule="evenodd" d="M110.674 23.6761H1.96003H1.53847C1.42384 23.6761 1.3203 23.7136 1.23155 23.7735C1.20197 23.7922 1.17238 23.8146 1.1465 23.8409C1.04665 23.9419 0.987488 24.0842 0.987488 24.2376V26.9215V27.3894C0.987488 27.5429 1.04665 27.6852 1.15019 27.7862H1.15389C1.25004 27.8873 1.38686 27.9509 1.53847 27.9509H2.00071H5.97594H6.95218H86.7045H87.6771H90.236H91.9629H108.526H110.512H110.637H111.099C111.21 27.9509 111.318 27.9135 111.406 27.8536C111.436 27.8349 111.462 27.8124 111.488 27.7862C111.588 27.6852 111.65 27.5429 111.65 27.3894V26.9215V24.2376C111.65 24.0842 111.588 23.9419 111.488 23.8409H111.484C111.384 23.7398 111.247 23.6761 111.099 23.6761H110.674ZM1.96003 24.6644H110.674V26.9215V26.9627H110.637H91.4748H90.7241H87.1483H6.50474H2.00071H1.96003V26.9215V24.6644ZM90.7241 26.9627H91.4748H90.7241ZM6.50474 26.9627H87.1483H6.50474Z" fill="black"/>
<path fill-rule="evenodd" clip-rule="evenodd" d="M1.96003 23.6763V1.36281C1.96003 1.35158 1.96373 1.34035 1.97482 1.3366C1.98222 1.32912 1.98962 1.32163 2.00071 1.32163H110.637C110.645 1.32163 110.656 1.32912 110.663 1.3366L110.671 1.34035C110.674 1.34783 110.674 1.35532 110.674 1.36281V23.6763H111.099C111.247 23.6763 111.384 23.7399 111.484 23.841H111.488C111.588 23.942 111.65 24.0843 111.65 24.2378V1.36281C111.65 1.10078 111.551 0.861212 111.388 0.677793L111.351 0.636618C111.17 0.453199 110.915 0.337158 110.637 0.337158H2.00071C1.72337 0.337158 1.46821 0.453199 1.28332 0.640361C1.10212 0.827523 0.987488 1.08206 0.987488 1.36281V24.2378C0.987488 24.0843 1.04665 23.942 1.1465 23.841C1.17238 23.8148 1.20197 23.7923 1.23155 23.7736C1.3203 23.7137 1.42384 23.6763 1.53847 23.6763H1.96003Z" fill="black"/>
<path fill-rule="evenodd" clip-rule="evenodd" d="M11.1531 29.0885H6.95232V27.9506H5.97607V29.5414C5.97607 29.6837 6.03524 29.8147 6.12769 29.912L6.13878 29.9232C6.23493 30.0168 6.36435 30.0767 6.50487 30.0767H10.665H11.1531H11.6412H13.945C14.2187 29.8858 14.5071 29.7211 14.814 29.5826C15.5092 29.2644 16.2821 29.0885 17.0956 29.0885H11.1531Z" fill="black"/>
<path fill-rule="evenodd" clip-rule="evenodd" d="M10.6648 30.0768V33.5692C10.6648 33.8425 10.883 34.0633 11.1529 34.0633H11.5597C11.5782 33.8949 11.6078 33.7302 11.641 33.5692C11.6743 33.4008 11.715 33.2361 11.7668 33.0751H11.641V30.0768H11.1529H10.6648Z" fill="black"/>
<path fill-rule="evenodd" clip-rule="evenodd" d="M13.1535 30.7433C12.5174 31.3871 12.0367 32.1844 11.7668 33.0753C11.715 33.2363 11.6743 33.401 11.641 33.5694C11.6078 33.7304 11.5782 33.8951 11.5597 34.0635C11.5338 34.2806 11.5227 34.5052 11.5227 34.7298C11.5227 36.2907 12.144 37.6982 13.1535 38.7201C14.163 39.742 15.5571 40.3746 17.0954 40.3746C18.6337 40.3746 20.0278 39.742 21.0337 38.7201C21.5736 38.1736 22.0025 37.5185 22.2873 36.7848C22.3908 36.5191 22.4721 36.2421 22.535 35.9538C22.6238 35.5608 22.6681 35.1528 22.6681 34.7298C22.6681 34.5052 22.6533 34.2806 22.6275 34.0635C22.609 33.8951 22.5831 33.7304 22.5498 33.5694C22.5461 33.5507 22.5424 33.5282 22.535 33.5095C22.5054 33.3635 22.4685 33.2175 22.4241 33.0753C22.3834 32.9405 22.3353 32.8058 22.2873 32.6748C22.0025 31.9448 21.5736 31.286 21.0337 30.7433C20.7933 30.4962 20.5271 30.2716 20.2423 30.077C19.9724 29.8861 19.6802 29.7214 19.377 29.5829C18.6818 29.2647 17.909 29.0887 17.0954 29.0887C16.2819 29.0887 15.509 29.2647 14.8138 29.5829C14.5069 29.7214 14.2185 29.8861 13.9448 30.077C13.6601 30.2716 13.3975 30.4962 13.1535 30.7433ZM13.8413 31.4395C14.6733 30.5973 15.8233 30.077 17.0954 30.077C18.3638 30.077 19.5138 30.5973 20.3459 31.4395C20.8007 31.8999 21.1631 32.4577 21.3924 33.0753C21.4552 33.2363 21.507 33.401 21.5477 33.5694C21.5884 33.7304 21.6216 33.8951 21.6475 34.0635C21.6771 34.2806 21.6919 34.5052 21.6919 34.7298C21.6919 36.0175 21.1779 37.1816 20.3459 38.0239C19.5138 38.8661 18.3638 39.3864 17.0954 39.3864C15.8233 39.3864 14.6733 38.8661 13.8413 38.0239C13.0093 37.1816 12.4952 36.0175 12.4952 34.7298C12.4952 34.5052 12.51 34.2806 12.5433 34.0635C12.5655 33.8951 12.5988 33.7304 12.6395 33.5694C12.6838 33.401 12.7356 33.2363 12.7948 33.0753C13.0277 32.4577 13.3864 31.8999 13.8413 31.4395Z" fill="black"/>
<path fill-rule="evenodd" clip-rule="evenodd" d="M27.4791 30.077C28.7475 30.077 29.8975 30.5973 30.7295 31.4395C31.1844 31.8999 31.5431 32.4577 31.776 33.0753C31.8389 33.2363 31.8907 33.401 31.9314 33.5694C31.972 33.7304 32.0053 33.8951 32.0312 34.0635C32.0608 34.2806 32.0756 34.5052 32.0756 34.7298C32.0756 36.0175 31.5616 37.1816 30.7295 38.0239C29.8975 38.8661 28.7475 39.3864 27.4791 39.3864C26.207 39.3864 25.057 38.8661 24.225 38.0239C23.3929 37.1816 22.8789 36.0175 22.8789 34.7298C22.8789 34.5052 22.8937 34.2806 22.927 34.0635C22.9492 33.8951 22.9825 33.7304 23.0231 33.5694C23.0675 33.401 23.1193 33.2363 23.1784 33.0753C23.4114 32.4577 23.7701 31.8999 24.225 31.4395C25.057 30.5973 26.207 30.077 27.4791 30.077ZM22.535 35.9538C22.4722 36.2421 22.3908 36.5191 22.2873 36.7848C22.3908 36.5191 22.4722 36.2421 22.535 35.9538ZM22.6681 34.7298C22.6681 35.1528 22.6238 35.5608 22.535 35.9538C22.6238 35.5608 22.6681 35.1528 22.6681 34.7298ZM22.6275 34.0635C22.6533 34.2806 22.6681 34.5052 22.6681 34.7298C22.6681 34.5052 22.6533 34.2806 22.6275 34.0635ZM22.5498 33.5694C22.5831 33.7304 22.609 33.8951 22.6275 34.0635C22.609 33.8951 22.5831 33.7304 22.5498 33.5694ZM22.535 33.5095C22.5424 33.5282 22.5461 33.5507 22.5498 33.5694C22.5461 33.5507 22.5424 33.5282 22.535 33.5095ZM22.4241 33.0753C22.4685 33.2175 22.5054 33.3635 22.535 33.5095C22.5054 33.3635 22.4685 33.2175 22.4241 33.0753ZM22.2873 32.6748C22.3353 32.8058 22.3834 32.9405 22.4241 33.0753C22.3834 32.9405 22.3353 32.8058 22.2873 32.6748ZM24.3285 30.077C24.0438 30.2716 23.7812 30.4962 23.5371 30.7433C22.9973 31.286 22.5683 31.9448 22.2873 32.6748C22.0025 31.9448 21.5736 31.286 21.0337 30.7433C20.7933 30.4962 20.5271 30.2716 20.2423 30.077C19.9724 29.8861 19.6802 29.7214 19.377 29.5829C18.6818 29.2647 17.909 29.0887 17.0954 29.0887C16.2819 29.0887 15.509 29.2647 14.8138 29.5829C14.5069 29.7214 14.2185 29.8861 13.9448 30.077C13.6601 30.2716 13.3975 30.4962 13.1535 30.7433C12.5174 31.3871 12.0367 32.1844 11.7668 33.0753C11.715 33.2363 11.6743 33.401 11.641 33.5694C11.6078 33.7304 11.5782 33.8951 11.5597 34.0635C11.5338 34.2806 11.5227 34.5052 11.5227 34.7298C11.5227 36.2907 12.144 37.6982 13.1535 38.7201C14.163 39.742 15.5571 40.3746 17.0954 40.3746C18.6337 40.3746 20.0278 39.742 21.0337 38.7201C21.5736 38.1736 22.0025 37.5185 22.2873 36.7848C22.5683 37.5185 22.9973 38.1736 23.5371 38.7201C24.5467 39.742 25.9408 40.3746 27.4791 40.3746C29.0174 40.3746 30.4115 39.742 31.4173 38.7201C32.4269 37.6982 33.0518 36.2907 33.0518 34.7298C33.0518 34.5052 33.037 34.2806 33.0111 34.0635C32.9926 33.8951 32.9668 33.7304 32.9335 33.5694C32.8965 33.401 32.8558 33.2363 32.8077 33.0753C32.5378 32.1844 32.0534 31.3871 31.4173 30.7433C31.177 30.4962 30.9107 30.2716 30.626 30.077C30.356 29.8861 30.0639 29.7214 29.7607 29.5829C29.0618 29.2647 28.2926 29.0887 27.4791 29.0887C26.6656 29.0887 25.8927 29.2647 25.1975 29.5829C24.8906 29.7214 24.6021 29.8861 24.3285 30.077ZM21.3924 33.0753C21.4552 33.2363 21.507 33.401 21.5477 33.5694C21.5884 33.7304 21.6216 33.8951 21.6475 34.0635C21.6771 34.2806 21.6919 34.5052 21.6919 34.7298C21.6919 36.0175 21.1779 37.1816 20.3459 38.0239C19.5138 38.8661 18.3638 39.3864 17.0954 39.3864C15.8233 39.3864 14.6733 38.8661 13.8413 38.0239C13.0093 37.1816 12.4952 36.0175 12.4952 34.7298C12.4952 34.5052 12.51 34.2806 12.5433 34.0635C12.5655 33.8951 12.5988 33.7304 12.6395 33.5694C12.6838 33.401 12.7356 33.2363 12.7948 33.0753C13.0277 32.4577 13.3864 31.8999 13.8413 31.4395C14.6733 30.5973 15.8233 30.077 17.0954 30.077C18.3638 30.077 19.5138 30.5973 20.3459 31.4395C20.8007 31.8999 21.1631 32.4577 21.3924 33.0753Z" fill="black"/>
<path fill-rule="evenodd" clip-rule="evenodd" d="M24.3286 30.0766C24.6023 29.8858 24.8907 29.7211 25.1977 29.5827C25.8929 29.2646 26.6657 29.0887 27.4793 29.0887H17.0956C17.9091 29.0887 18.682 29.2646 19.3772 29.5827C19.6804 29.7211 19.9725 29.8858 20.2425 30.0766H24.3286Z" fill="black"/>
<path fill-rule="evenodd" clip-rule="evenodd" d="M75.5149 29.246C75.5444 29.2198 75.5777 29.1936 75.6073 29.1711C75.574 29.1936 75.5444 29.2198 75.5149 29.246ZM75.3596 29.624C75.3596 29.4818 75.4187 29.347 75.5149 29.246C75.4187 29.3433 75.3596 29.478 75.3596 29.624ZM75.3596 30.077V29.624V30.077ZM75.892 29.0887C75.7885 29.0887 75.6924 29.1224 75.6073 29.1711C75.6887 29.1187 75.7848 29.0887 75.892 29.0887ZM29.7609 29.5829C30.0641 29.7214 30.3563 29.8861 30.6262 30.077H41.583H42.0712H42.5593H75.3596V31.6678V32.6935C75.3596 32.8432 75.4187 32.978 75.5149 33.0753C75.6147 33.1726 75.7478 33.2325 75.892 33.2325H77.9777C78.1219 33.2325 78.255 33.1726 78.3511 33.0716L78.3548 33.0678C78.4473 32.9742 78.5065 32.8395 78.5065 32.6935V32.2031V31.2187V30.077V29.6278C78.5065 29.4818 78.4473 29.3508 78.3548 29.2534L78.3474 29.2422C78.2513 29.1486 78.1219 29.0887 77.9777 29.0887H75.892H42.0712H27.4793C28.2928 29.0887 29.062 29.2647 29.7609 29.5829ZM76.3358 30.077H77.5339V31.2187V32.2031V32.2443H76.3358V32.2031V31.2187V30.077Z" fill="black"/>
<path fill-rule="evenodd" clip-rule="evenodd" d="M42.5591 33.5692V30.0768H42.071H41.5829V33.0751H32.8078C32.8559 33.2361 32.8966 33.4008 32.9335 33.5692C32.9668 33.7302 32.9927 33.8949 33.0112 34.0633H42.071C42.341 34.0633 42.5591 33.8425 42.5591 33.5692Z" fill="black"/>
<path fill-rule="evenodd" clip-rule="evenodd" d="M78.5063 29.6278V30.077H86.7045V31.2186H78.5063V32.2031H87.1482C87.2518 32.2031 87.3479 32.1732 87.433 32.1208C87.4663 32.0983 87.4958 32.0759 87.5254 32.0459C87.6179 31.9523 87.677 31.8176 87.677 31.6678V29.624C87.677 29.6128 87.677 29.5978 87.677 29.5829C87.666 29.4518 87.6105 29.3321 87.5254 29.246C87.4293 29.1524 87.2962 29.0887 87.1482 29.0887H86.7045H77.9775C78.1217 29.0887 78.2511 29.1486 78.3473 29.2422L78.3547 29.2534C78.4471 29.3508 78.5063 29.4818 78.5063 29.6278Z" fill="black"/>
<path fill-rule="evenodd" clip-rule="evenodd" d="M86.7047 27.9506V29.0885H87.1484C87.2963 29.0885 87.4294 29.1521 87.5256 29.2457C87.6106 29.3318 87.6661 29.4516 87.6772 29.5826C87.6772 29.5676 87.6772 29.5564 87.6772 29.5414V27.9506H86.7047Z" fill="black"/>
<path fill-rule="evenodd" clip-rule="evenodd" d="M90.236 27.9506V29.5826C90.236 29.8446 90.4431 30.0617 90.6983 30.0767C90.7057 30.0767 90.7167 30.0767 90.7241 30.0767H91.1864H91.4748C91.7448 30.0767 91.9629 29.8559 91.9629 29.5826V29.0885V27.9506H90.236Z" fill="black"/>
<path fill-rule="evenodd" clip-rule="evenodd" d="M91.1865 30.077H90.7243C90.7169 30.077 90.7058 30.077 90.6984 30.077V33.5694C90.6984 33.8202 90.8833 34.0261 91.12 34.0598C91.1385 33.8913 91.1644 33.7304 91.1976 33.5694C91.2975 33.0865 91.4602 32.6261 91.6747 32.1956V30.077H93.5051C93.7788 29.8861 94.0672 29.7214 94.3704 29.5829C95.0693 29.2647 95.8422 29.0887 96.652 29.0887H91.9631V29.5829C91.9631 29.8561 91.7449 30.077 91.475 30.077H91.1865Z" fill="black"/>
<path fill-rule="evenodd" clip-rule="evenodd" d="M94.3705 29.5829C94.0672 29.7214 93.7788 29.8861 93.5052 30.077C93.2204 30.2716 92.9542 30.4962 92.7138 30.7433C92.2959 31.1662 91.941 31.6566 91.6747 32.1956C91.4602 32.6261 91.2975 33.0865 91.1977 33.5694C91.1644 33.7304 91.1385 33.8913 91.12 34.0598C91.0941 34.2769 91.0793 34.5052 91.0793 34.7298C91.0793 36.2907 91.7043 37.6982 92.7138 38.7201C93.7196 39.742 95.1137 40.3746 96.6521 40.3746C98.1941 40.3746 99.5845 39.742 100.594 38.7201C101.2 38.1062 101.67 37.3501 101.944 36.5079C101.896 36.3581 101.855 36.2084 101.818 36.0549C101.781 35.894 101.748 35.7293 101.722 35.5608C101.714 35.5009 101.707 35.441 101.7 35.3811C101.689 35.2763 101.677 35.1753 101.674 35.0704C101.666 34.9581 101.663 34.8459 101.663 34.7298C101.663 34.5127 101.674 34.2956 101.7 34.0822C101.7 34.0747 101.7 34.071 101.703 34.0635C101.722 33.8951 101.748 33.7304 101.781 33.5694C101.818 33.401 101.859 33.2363 101.907 33.0753C101.918 33.0341 101.933 32.9967 101.944 32.9555C101.844 32.6486 101.718 32.3529 101.57 32.0684C101.478 31.8999 101.382 31.7352 101.274 31.578C101.16 31.4058 101.038 31.2411 100.905 31.0839C100.805 30.9641 100.701 30.8518 100.594 30.7433C100.35 30.4962 100.087 30.2716 99.8027 30.077C99.529 29.8861 99.2406 29.7214 98.9374 29.5829C98.2385 29.2647 97.4656 29.0887 96.6521 29.0887C95.8422 29.0887 95.0694 29.2647 94.3705 29.5829ZM93.4016 31.4395C94.2336 30.5973 95.3837 30.077 96.6521 30.077C97.7318 30.077 98.7266 30.4513 99.5105 31.0839C99.6474 31.1962 99.7805 31.3122 99.9062 31.4395C99.9506 31.4844 99.9913 31.5293 100.036 31.578C100.176 31.7315 100.306 31.8962 100.428 32.0684C100.642 32.3791 100.82 32.7159 100.953 33.0753C101.012 33.2363 101.064 33.401 101.108 33.5694C101.149 33.7304 101.182 33.8951 101.204 34.0635C101.237 34.2806 101.252 34.5052 101.252 34.7298C101.252 34.8459 101.249 34.9581 101.241 35.0704C101.23 35.2351 101.208 35.3999 101.178 35.5608C101.149 35.7293 101.112 35.894 101.064 36.0549C100.842 36.8073 100.439 37.4811 99.9062 38.0239C99.0742 38.8661 97.9241 39.3864 96.6521 39.3864C95.3837 39.3864 94.2336 38.8661 93.4016 38.0239C92.5696 37.1816 92.0556 36.0175 92.0556 34.7298C92.0556 34.5052 92.0704 34.2806 92.1037 34.0635C92.1258 33.8951 92.1591 33.7304 92.1998 33.5694C92.2405 33.401 92.2923 33.2363 92.3551 33.0753C92.5881 32.4577 92.9468 31.8999 93.4016 31.4395Z" fill="black"/>
<path fill-rule="evenodd" clip-rule="evenodd" d="M96.6519 34.2393C96.3857 34.2393 96.1675 34.4601 96.1675 34.7296V36.1483V36.6237C96.1675 36.6349 96.1675 36.6499 96.1675 36.6649C96.1897 36.9157 96.3967 37.1178 96.6519 37.1178C96.9107 37.1178 97.1178 36.9157 97.14 36.6649C97.14 36.6499 97.14 36.6349 97.14 36.6237V36.1483V34.7296C97.14 34.4601 96.9218 34.2393 96.6519 34.2393Z" fill="black"/>
<path fill-rule="evenodd" clip-rule="evenodd" d="M97.9793 34.0634C98.0792 34.2655 98.1347 34.4901 98.1347 34.7297C98.1347 34.9992 98.0681 35.25 97.9461 35.4671C97.8795 35.5869 97.7982 35.6954 97.702 35.7927C97.665 35.8302 97.628 35.8639 97.5874 35.8975C97.4542 36.0061 97.3063 36.0922 97.1399 36.1483V36.6237C97.1399 36.635 97.1399 36.6499 97.1399 36.6649C97.1177 36.9157 96.9107 37.1178 96.6518 37.1178C96.3967 37.1178 96.1896 36.9157 96.1674 36.6649C96.1674 36.6499 96.1674 36.635 96.1674 36.6237V36.1483C95.9529 36.0735 95.7606 35.95 95.6053 35.7927C95.3354 35.5232 95.1727 35.1452 95.1727 34.7297C95.1727 34.4901 95.2281 34.2655 95.3243 34.0634C95.3982 33.9174 95.4907 33.7826 95.6053 33.6703C95.6386 33.6329 95.6756 33.5992 95.7162 33.5692C95.9714 33.3596 96.2968 33.2324 96.6518 33.2324C96.9513 33.2324 97.225 33.3185 97.4579 33.4719C97.506 33.5019 97.5504 33.5356 97.5911 33.5692C97.6317 33.5992 97.6687 33.6329 97.702 33.6703C97.7982 33.7676 97.8795 33.8762 97.9461 33.996C97.9572 34.0184 97.9683 34.0409 97.9793 34.0634ZM96.6518 32.2441C95.9751 32.2441 95.3612 32.5249 94.9175 32.9741C94.8842 33.0078 94.8546 33.0415 94.8213 33.0751C94.6919 33.2249 94.5773 33.3896 94.4811 33.5692C94.3998 33.7227 94.3369 33.8912 94.2889 34.0634C94.2297 34.2767 94.1964 34.5013 94.1964 34.7297C94.1964 35.4147 94.4738 36.036 94.9175 36.489C95.3612 36.9382 95.9751 37.2189 96.6518 37.2189C97.3285 37.2189 97.9424 36.9382 98.3898 36.489C98.5192 36.358 98.6339 36.212 98.73 36.0548C98.8262 35.9013 98.9075 35.7366 98.9667 35.5607C99.0221 35.4034 99.0628 35.2387 99.085 35.0703C99.1035 34.958 99.1109 34.8457 99.1109 34.7297C99.1109 34.5013 99.0776 34.2767 99.0185 34.0634C98.9704 33.8912 98.9075 33.7227 98.8262 33.5692C98.73 33.3896 98.6154 33.2249 98.486 33.0751C98.4675 33.0564 98.449 33.0377 98.4342 33.019C98.4194 33.004 98.4046 32.989 98.3898 32.9741C98.2567 32.8393 98.1051 32.7195 97.9461 32.6185C97.7945 32.5211 97.6317 32.4425 97.4579 32.3826C97.2065 32.2928 96.9365 32.2441 96.6518 32.2441Z" fill="black"/>
<path fill-rule="evenodd" clip-rule="evenodd" d="M104.802 35.0703C104.824 35.2387 104.865 35.4034 104.92 35.5607C104.983 35.7366 105.061 35.9013 105.157 36.0548C105.257 36.212 105.371 36.358 105.501 36.489C105.945 36.9382 106.558 37.2189 107.235 37.2189C107.912 37.2189 108.526 36.9382 108.973 36.489C109.103 36.358 109.217 36.212 109.313 36.0548C109.41 35.9013 109.491 35.7366 109.55 35.5607C109.606 35.4034 109.646 35.2387 109.668 35.0703C109.683 34.958 109.691 34.8457 109.691 34.7297C109.691 34.5013 109.661 34.2767 109.602 34.0634C109.554 33.8912 109.487 33.7227 109.406 33.5692C109.313 33.3896 109.199 33.2249 109.066 33.0751C109.036 33.0415 109.006 33.0078 108.969 32.9741C108.526 32.5249 107.912 32.2441 107.235 32.2441C106.558 32.2441 105.945 32.5249 105.501 32.9741C105.468 33.0078 105.434 33.0415 105.405 33.0751C105.272 33.2249 105.161 33.3896 105.065 33.5692C104.983 33.7227 104.917 33.8912 104.872 34.0634C104.813 34.2767 104.78 34.5013 104.78 34.7297C104.78 34.8457 104.787 34.958 104.802 35.0703ZM105.793 35.0703C105.767 34.9617 105.756 34.8457 105.756 34.7297C105.756 34.4901 105.811 34.2655 105.908 34.0634C105.982 33.9174 106.074 33.7826 106.189 33.6703C106.222 33.6329 106.259 33.5992 106.296 33.5692C106.551 33.3596 106.88 33.2324 107.235 33.2324C107.594 33.2324 107.919 33.3596 108.174 33.5692C108.215 33.5992 108.248 33.6329 108.285 33.6703C108.396 33.7826 108.492 33.9174 108.563 34.0634C108.663 34.2655 108.718 34.4901 108.718 34.7297C108.718 34.8457 108.703 34.9617 108.681 35.0703C108.64 35.2462 108.566 35.4147 108.47 35.5607C108.419 35.6467 108.356 35.7216 108.285 35.7927C108.182 35.8975 108.064 35.9836 107.934 36.0548C107.868 36.0922 107.797 36.1221 107.723 36.1483V36.6237C107.723 36.635 107.723 36.6499 107.723 36.6649C107.701 36.9157 107.49 37.1178 107.235 37.1178C106.98 37.1178 106.769 36.9157 106.751 36.6649C106.751 36.6499 106.751 36.635 106.751 36.6237V36.1483C106.677 36.1221 106.607 36.0922 106.536 36.0548C106.407 35.9836 106.289 35.8975 106.189 35.7927C106.118 35.7216 106.056 35.6467 106 35.5607C105.904 35.4147 105.834 35.2462 105.793 35.0703Z" fill="black"/>
<path fill-rule="evenodd" clip-rule="evenodd" d="M106.751 35.0703V35.5606V36.0547V36.1483V36.6237C106.751 36.6349 106.751 36.6499 106.751 36.6649C106.769 36.9157 106.98 37.1178 107.235 37.1178C107.49 37.1178 107.701 36.9157 107.723 36.6649C107.723 36.6499 107.723 36.6349 107.723 36.6237V36.1483V36.0547V35.5606V35.0703V34.7296C107.723 34.4601 107.505 34.2393 107.235 34.2393C106.969 34.2393 106.751 34.4601 106.751 34.7296V35.0703Z" fill="black"/>
<path fill-rule="evenodd" clip-rule="evenodd" d="M111.011 32.0684C111.221 32.3791 111.399 32.7159 111.536 33.0753C111.595 33.2363 111.647 33.401 111.691 33.5694C111.732 33.7304 111.765 33.8951 111.787 34.0635C111.821 34.2806 111.835 34.5052 111.835 34.7298C111.835 34.8459 111.832 34.9581 111.824 35.0704C111.809 35.2351 111.791 35.3999 111.761 35.5608C111.732 35.7293 111.695 35.894 111.647 36.0549C111.425 36.8073 111.022 37.4811 110.489 38.0239C109.657 38.8661 108.507 39.3864 107.235 39.3864C105.967 39.3864 104.817 38.8661 103.985 38.0239C103.448 37.4811 103.045 36.8073 102.827 36.0549C102.779 35.894 102.739 35.7293 102.709 35.5608C102.683 35.3999 102.661 35.2351 102.65 35.0704C102.642 34.9581 102.639 34.8459 102.639 34.7298C102.639 34.5052 102.653 34.2806 102.683 34.0635C102.709 33.8951 102.742 33.7304 102.783 33.5694C102.824 33.401 102.875 33.2363 102.938 33.0753C103.071 32.7159 103.249 32.3791 103.463 32.0684C103.582 31.8962 103.715 31.7315 103.855 31.578C103.896 31.5293 103.94 31.4844 103.985 31.4395C104.11 31.3122 104.24 31.1962 104.38 31.0839C105.164 30.4513 106.155 30.077 107.235 30.077C108.315 30.077 109.31 30.4513 110.094 31.0839C110.23 31.1962 110.364 31.3122 110.489 31.4395C110.534 31.4844 110.574 31.5293 110.619 31.578C110.759 31.7315 110.889 31.8962 111.011 32.0684ZM112.15 32.0684C112.061 31.8999 111.961 31.7352 111.857 31.578C111.743 31.4058 111.617 31.2411 111.488 31.0839C111.388 30.9641 111.284 30.8518 111.177 30.7433C110.933 30.4962 110.67 30.2716 110.386 30.077C110.349 30.0508 110.315 30.0283 110.278 30.0058C110.038 29.8449 109.783 29.7026 109.517 29.5829C109.202 29.4406 108.87 29.3246 108.526 29.2422C108.112 29.1412 107.679 29.0887 107.235 29.0887C106.422 29.0887 105.649 29.2647 104.954 29.5829C104.65 29.7214 104.358 29.8861 104.088 30.077C103.803 30.2716 103.537 30.4962 103.297 30.7433C103.186 30.8518 103.082 30.9641 102.986 31.0839C102.853 31.2411 102.731 31.4058 102.616 31.578C102.509 31.7352 102.409 31.8999 102.321 32.0684C102.173 32.3529 102.047 32.6486 101.943 32.9555C101.932 32.9967 101.918 33.0341 101.906 33.0753C101.858 33.2363 101.818 33.401 101.781 33.5694C101.747 33.7304 101.722 33.8951 101.703 34.0635C101.699 34.071 101.699 34.0747 101.699 34.0822C101.674 34.2956 101.662 34.5127 101.662 34.7298C101.662 34.8459 101.666 34.9581 101.674 35.0704C101.677 35.1753 101.688 35.2763 101.699 35.3811C101.707 35.441 101.714 35.5009 101.722 35.5608C101.747 35.7293 101.781 35.894 101.818 36.0549C101.855 36.2084 101.895 36.3581 101.943 36.5079C102.221 37.3501 102.687 38.1062 103.297 38.7201C104.303 39.742 105.697 40.3746 107.235 40.3746C108.773 40.3746 110.168 39.742 111.177 38.7201C111.891 37.9977 112.412 37.0806 112.656 36.0549C112.693 35.894 112.727 35.7293 112.749 35.5608C112.771 35.3999 112.789 35.2351 112.8 35.0704C112.804 34.9581 112.808 34.8459 112.808 34.7298C112.808 34.5052 112.797 34.2806 112.771 34.0635C112.752 33.8951 112.723 33.7304 112.69 33.5694C112.656 33.401 112.616 33.2363 112.564 33.0753C112.46 32.7234 112.32 32.3865 112.15 32.0684Z" fill="black"/>
<path fill-rule="evenodd" clip-rule="evenodd" d="M99.8025 30.0766H104.088C104.358 29.8858 104.65 29.7211 104.954 29.5827C105.649 29.2646 106.422 29.0887 107.235 29.0887H96.6519C97.4655 29.0887 98.2383 29.2646 98.9372 29.5827C99.2404 29.7211 99.5289 29.8858 99.8025 30.0766Z" fill="black"/>
<path fill-rule="evenodd" clip-rule="evenodd" d="M102.986 31.0839H100.905C101.038 31.241 101.16 31.4057 101.274 31.5778C101.382 31.7349 101.478 31.8996 101.57 32.068H102.321C102.41 31.8996 102.509 31.7349 102.617 31.5778C102.731 31.4057 102.853 31.241 102.986 31.0839Z" fill="black"/>
<path fill-rule="evenodd" clip-rule="evenodd" d="M108.526 27.9506V29.0885V29.242C108.87 29.3243 109.202 29.4404 109.517 29.5826C109.783 29.7024 110.038 29.8446 110.278 30.0056C110.419 29.9158 110.511 29.7623 110.511 29.5826V29.0885V27.9506H108.526ZM109.498 29.0885V28.2575H109.539V29.0885H109.498Z" fill="black"/>
<path fill-rule="evenodd" clip-rule="evenodd" d="M110.512 29.0887V29.5827C110.512 29.7623 110.419 29.9157 110.279 30.0055C110.316 30.028 110.349 30.0504 110.386 30.0766H113.396C113.126 30.0766 112.908 29.8558 112.908 29.5827V29.0887H110.512Z" fill="black"/>
<path fill-rule="evenodd" clip-rule="evenodd" d="M116.376 31.0839H111.488C111.617 31.241 111.743 31.4057 111.858 31.5778C111.961 31.7349 112.061 31.8996 112.15 32.068H116.535V31.6788L116.509 31.5778L116.376 31.0839Z" fill="black"/>
<path fill-rule="evenodd" clip-rule="evenodd" d="M114.953 35.0702H112.801C112.79 35.2349 112.771 35.3996 112.749 35.5606C112.727 35.729 112.693 35.8937 112.656 36.0547H114.953C114.923 35.8937 114.905 35.729 114.905 35.5606C114.905 35.3921 114.923 35.2274 114.953 35.0702Z" fill="black"/>
<path fill-rule="evenodd" clip-rule="evenodd" d="M114.905 35.5607C114.905 35.7292 114.923 35.8939 114.953 36.0548C115.053 36.5826 115.308 37.0543 115.666 37.4174C116.136 37.8928 116.787 38.1885 117.501 38.1885H127.289C128.003 38.1885 128.653 37.8928 129.123 37.4174C129.445 37.088 129.685 36.6762 129.803 36.2121C129.844 36.0511 129.87 35.8864 129.877 35.718C129.881 35.6655 129.885 35.6131 129.885 35.5607C129.885 35.4484 129.877 35.3361 129.863 35.2238C129.789 34.6362 129.519 34.1084 129.123 33.7078C128.653 33.2287 128.003 32.933 127.289 32.933H121.165H120.677H120.189H117.508H117.501C117.338 32.933 117.179 32.9517 117.024 32.9779C116.898 33.0041 116.779 33.0341 116.661 33.0752C116.62 33.0902 116.576 33.1052 116.535 33.1239C116.269 33.2324 116.025 33.3822 115.814 33.5693C115.763 33.6143 115.714 33.6592 115.666 33.7078C115.559 33.8164 115.459 33.9362 115.374 34.0634C115.167 34.3592 115.023 34.6998 114.953 35.0704C114.923 35.2276 114.905 35.3923 114.905 35.5607ZM116.358 36.7211C116.173 36.5377 116.036 36.3094 115.955 36.0548C115.907 35.9014 115.881 35.7329 115.881 35.5607C115.881 35.3923 115.907 35.2238 115.955 35.0704C116.036 34.8158 116.173 34.5875 116.358 34.4041C116.413 34.3479 116.473 34.2955 116.535 34.2469C116.632 34.1757 116.735 34.1121 116.846 34.0634C116.902 34.0372 116.961 34.0148 117.024 33.9961C117.175 33.9474 117.334 33.9212 117.501 33.9212H117.508H120.189H120.677H121.017H121.165H127.289C127.733 33.9212 128.139 34.1046 128.432 34.4041C128.653 34.6249 128.809 34.9094 128.875 35.2238C128.897 35.3324 128.909 35.4484 128.909 35.5607C128.909 35.6131 128.909 35.6655 128.901 35.718C128.886 35.8901 128.842 36.0586 128.775 36.2121C128.694 36.403 128.576 36.5752 128.432 36.7211C128.139 37.0169 127.733 37.204 127.289 37.204H117.501C117.057 37.204 116.65 37.0169 116.358 36.7211Z" fill="black"/>
<path fill-rule="evenodd" clip-rule="evenodd" d="M129.877 35.718C129.87 35.8864 129.844 36.0511 129.803 36.2121H130.979V35.718V35.2239H129.863C129.877 35.3362 129.885 35.4485 129.885 35.5608C129.885 35.6132 129.881 35.6656 129.877 35.718Z" fill="black"/>
<path fill-rule="evenodd" clip-rule="evenodd" d="M139.804 35.7058C139.797 35.8742 139.771 36.0389 139.73 36.1999L143.48 36.212V35.7178V35.2237L139.789 35.2117C139.804 35.324 139.811 35.4363 139.811 35.5486C139.811 35.601 139.808 35.6534 139.804 35.7058Z" fill="black"/>
<path fill-rule="evenodd" clip-rule="evenodd" d="M130.979 36.2121V37.6981C130.979 37.9676 131.198 38.1885 131.467 38.1885H139.869C140.139 38.1885 140.357 37.9676 140.357 37.6981V36.2121V35.718V35.2238V33.4271C140.357 33.1538 140.139 32.933 139.869 32.933H131.467C131.198 32.933 130.979 33.1538 130.979 33.4271V35.2238V35.718V36.2121ZM139.381 37.204H131.956V36.2121V35.718V35.2238V33.9212H139.381V35.2238V35.718V36.2121V37.204Z" fill="black"/>
<path fill-rule="evenodd" clip-rule="evenodd" d="M146.082 35.7179C146.159 35.8938 146.252 36.0585 146.363 36.212C146.437 36.3093 146.514 36.4029 146.603 36.489C147.047 36.9382 147.661 37.2189 148.337 37.2189C149.014 37.2189 149.628 36.9382 150.072 36.489C150.157 36.4029 150.238 36.3093 150.308 36.212C150.419 36.0585 150.515 35.8938 150.589 35.7179C150.659 35.5607 150.711 35.396 150.745 35.2238C150.774 35.0665 150.793 34.9018 150.793 34.7297C150.793 34.0446 150.519 33.4233 150.072 32.9741C149.628 32.5249 149.014 32.2441 148.337 32.2441C147.661 32.2441 147.047 32.5249 146.599 32.9741C146.155 33.4233 145.882 34.0446 145.882 34.7297C145.882 34.9018 145.897 35.0665 145.93 35.2238C145.963 35.396 146.015 35.5607 146.082 35.7179ZM147.849 36.1483C147.635 36.0735 147.442 35.95 147.287 35.7927C147.265 35.7703 147.239 35.7441 147.217 35.7179C147.095 35.5756 146.999 35.4072 146.936 35.2238C146.884 35.0703 146.854 34.9056 146.854 34.7297C146.854 34.3179 147.021 33.9398 147.287 33.6703C147.557 33.3971 147.927 33.2324 148.337 33.2324C148.748 33.2324 149.117 33.3971 149.384 33.6703C149.654 33.9398 149.816 34.3179 149.816 34.7297C149.816 34.9056 149.79 35.0703 149.735 35.2238C149.672 35.4072 149.576 35.5756 149.454 35.7179C149.432 35.7441 149.41 35.7703 149.384 35.7927C149.228 35.95 149.036 36.0735 148.822 36.1483V36.212V36.6237C148.822 36.635 148.822 36.6499 148.822 36.6649C148.803 36.9157 148.592 37.1178 148.337 37.1178C148.082 37.1178 147.871 36.9157 147.849 36.6649C147.849 36.6499 147.849 36.635 147.849 36.6237V36.212V36.1483Z" fill="black"/>
<path fill-rule="evenodd" clip-rule="evenodd" d="M147.849 34.7296V35.2237V35.7178V36.1483V36.2119V36.6237C147.849 36.6349 147.849 36.6499 147.849 36.6649C147.871 36.9157 148.082 37.1178 148.337 37.1178C148.592 37.1178 148.803 36.9157 148.822 36.6649C148.822 36.6499 148.822 36.6349 148.822 36.6237V36.2119V36.1483V35.7178V35.2237V34.7296C148.822 34.4601 148.607 34.2393 148.337 34.2393C148.067 34.2393 147.849 34.4601 147.849 34.7296Z" fill="black"/>
<path fill-rule="evenodd" clip-rule="evenodd" d="M148.337 30.077C149.606 30.077 150.756 30.5973 151.588 31.4395C152.42 32.2817 152.934 33.4459 152.934 34.7298C152.934 34.8983 152.926 35.063 152.908 35.2239C152.893 35.3924 152.867 35.5571 152.83 35.718C152.797 35.8865 152.752 36.0512 152.697 36.2121C152.468 36.9009 152.087 37.5185 151.588 38.0239C150.756 38.8661 149.606 39.3864 148.337 39.3864C147.065 39.3864 145.915 38.8661 145.083 38.0239C144.587 37.5185 144.203 36.9009 143.974 36.2121C143.922 36.0512 143.877 35.8865 143.84 35.718C143.807 35.5571 143.781 35.3924 143.763 35.2239C143.744 35.063 143.737 34.8983 143.737 34.7298C143.737 33.4459 144.251 32.2817 145.083 31.4395C145.915 30.5973 147.065 30.077 148.337 30.077ZM152.275 30.7433C151.27 29.7214 149.875 29.0887 148.337 29.0887C146.799 29.0887 145.405 29.7214 144.395 30.7433C143.386 31.7614 142.764 33.1726 142.764 34.7298C142.764 34.8983 142.772 35.063 142.783 35.2239C142.798 35.3924 142.82 35.5571 142.849 35.718C142.879 35.8865 142.912 36.0512 142.957 36.2121C143.216 37.1741 143.718 38.0351 144.395 38.7201C145.405 39.742 146.799 40.3746 148.337 40.3746C149.875 40.3746 151.27 39.742 152.275 38.7201C152.956 38.0351 153.459 37.1741 153.714 36.2121C153.758 36.0512 153.795 35.8865 153.825 35.718C153.854 35.5571 153.873 35.3924 153.888 35.2239C153.902 35.063 153.91 34.8983 153.91 34.7298C153.91 33.1726 153.285 31.7614 152.275 30.7433Z" fill="black"/>
<path fill-rule="evenodd" clip-rule="evenodd" d="M151.839 24.6679C152.841 25.2332 153.651 25.9032 154.028 26.6556C154.15 26.8952 154.442 26.9925 154.683 26.869C154.86 26.7791 154.96 26.592 154.949 26.4011L155.004 23.1968C155.012 22.9386 154.819 22.7252 154.568 22.699L153.54 22.5568C151.82 22.3209 149.591 22.014 147.549 22.0364C147.283 22.0402 147.069 22.2648 147.072 22.5343C147.072 22.7664 147.231 22.9535 147.442 23.0059C148.91 23.3728 150.534 23.9305 151.839 24.6679ZM154.002 25.031C153.533 24.5818 152.956 24.1738 152.309 23.807C151.957 23.6086 151.58 23.4214 151.192 23.2455C151.979 23.3353 152.734 23.4402 153.411 23.5337L154.024 23.6161L154.002 25.031Z" fill="black"/>
<path fill-rule="evenodd" clip-rule="evenodd" d="M145.893 20.0563L153.378 21.3477C154.365 21.5199 155.016 21.8231 155.43 22.1787C155.925 22.598 156.081 23.0996 156.081 23.5151V30.7657C156.081 30.9828 156.221 31.17 156.414 31.2336C156.591 31.3085 156.743 31.4358 156.854 31.5967C156.961 31.7577 157.024 31.9523 157.024 32.1582V34.7635C157.024 34.887 156.972 35.0031 156.891 35.0892C156.806 35.1715 156.691 35.2239 156.569 35.2239H153.888C153.873 35.3924 153.855 35.5571 153.825 35.718C153.795 35.8865 153.758 36.0512 153.714 36.2121H156.569C156.961 36.2121 157.32 36.0474 157.578 35.7854C157.837 35.5234 158 35.1603 158 34.7635V32.1582C158 31.7465 157.871 31.3609 157.656 31.039C157.497 30.8069 157.294 30.6123 157.053 30.4625V23.5151C157.053 22.86 156.813 22.0739 156.055 21.4263C155.515 20.9659 154.713 20.5804 153.54 20.3782L146.23 19.113L139.204 10.5859C138.275 9.46294 133.22 8.28382 128.731 7.23945L128.047 7.07849V7.58383V8.08917L128.513 8.19772C132.854 9.2084 137.743 10.3463 138.457 11.2148L145.601 19.8841C145.679 19.9777 145.782 20.0339 145.893 20.0563Z" fill="black"/>
<path fill-rule="evenodd" clip-rule="evenodd" d="M131.164 24.8475V22.8374C131.164 22.5679 130.946 22.347 130.68 22.347H130.192C129.922 22.347 129.704 22.5679 129.704 22.8374V24.8475C129.704 25.1208 129.922 25.3416 130.192 25.3416H130.68C130.946 25.3416 131.164 25.1208 131.164 24.8475Z" fill="black"/>
<path fill-rule="evenodd" clip-rule="evenodd" d="M130.868 19.6708H141.426C141.626 19.6708 141.866 19.581 142.025 19.4575C142.095 19.4013 142.154 19.3377 142.199 19.2703C142.265 19.1655 142.302 19.0495 142.302 18.9222C142.302 18.7912 142.262 18.6639 142.173 18.5479L138.113 13.2886L138.065 13.2138C137.917 12.9817 137.784 12.7683 137.366 12.7683H130.868C130.643 12.7683 130.44 12.8544 130.288 12.9929C130.118 13.1426 130.014 13.356 130.014 13.5918V18.8511C130.014 19.0869 130.122 19.3003 130.288 19.45C130.44 19.5885 130.647 19.6708 130.868 19.6708ZM141.049 18.6864H130.991V13.7565H137.251L137.262 13.7715C137.288 13.8127 137.318 13.8539 137.347 13.895L141.049 18.6864Z" fill="black"/>
<path fill-rule="evenodd" clip-rule="evenodd" d="M125.943 29.0888V21.2205C125.943 21.183 125.935 21.1456 125.928 21.1044C125.873 20.8798 125.673 20.7301 125.455 20.7301C125.418 20.7301 125.381 20.7338 125.34 20.7451L124.97 20.8349L115.26 23.2156L114.79 23.3317L114.317 23.4477L113.322 23.691C113.089 23.7284 112.908 23.9343 112.908 24.1814V29.0888V29.5829C112.908 29.8561 113.126 30.077 113.396 30.077H116.103H116.606H117.109H120.189H120.677H121.165H125.455C125.725 30.077 125.943 29.8561 125.943 29.5829V29.0888ZM115.515 24.1664L124.97 21.8456V29.0888H120.677H116.842H116.339H115.836H113.884V24.5669L114.572 24.3947L115.045 24.2824L115.515 24.1664Z" fill="black"/>
<path fill-rule="evenodd" clip-rule="evenodd" d="M125.913 21.2204V29.0887H127.045V7.86075V7.35542V6.74901V6.3672L124.8 1.3812L124.164 2.10739L125.21 4.53675L125.669 5.59609L125.858 6.03405C125.891 6.10143 125.913 6.18004 125.913 6.26613V6.69286V21.2204ZM125.31 20.745C125.351 20.7338 125.388 20.73 125.425 20.73C125.643 20.73 125.843 20.8797 125.898 21.1043C125.906 21.1455 125.913 21.183 125.913 21.2204V29.0887V29.5828C125.913 29.856 125.695 30.0769 125.425 30.0769H127.533C127.803 30.0769 128.021 29.856 128.021 29.5828L128.017 8.08909V7.58375V7.07841V6.26613C128.017 6.19501 128.002 6.12763 127.973 6.06025L125.388 0.31812C125.362 0.246998 125.318 0.17962 125.258 0.123471C125.055 -0.0562046 124.748 -0.0374884 124.571 0.164647L123.232 1.68815C123.11 1.82665 123.069 2.02878 123.151 2.2122L123.75 3.60469L124.071 4.34959L124.423 5.16936L124.94 6.36346V20.8348L125.31 20.745Z" fill="black"/>
<path fill-rule="evenodd" clip-rule="evenodd" d="M119.375 11.0912H123.295C123.369 11.0912 123.447 11.0762 123.521 11.0463L123.525 11.0425C123.635 10.9976 123.743 10.9153 123.817 10.8142C123.902 10.7019 123.957 10.5634 123.957 10.4099C123.957 10.3725 123.953 10.3351 123.946 10.2976L123.987 6.98112C123.99 6.82765 123.92 6.67792 123.794 6.58059C123.724 6.52819 123.484 6.41963 123.188 6.29236C122.63 6.05654 121.746 5.73462 121.746 5.73462H119.375C119.18 5.73462 119.013 5.82446 118.895 5.97419L118.861 6.01536C118.776 6.13889 118.725 6.29985 118.725 6.46829V10.3575C118.725 10.526 118.776 10.6869 118.861 10.8105C118.98 10.9826 119.161 11.0912 119.375 11.0912ZM122.977 10.1067H119.697V6.71909H121.746C121.746 6.71909 122.334 6.99609 122.811 7.19823L123.014 7.28432L122.977 10.1067Z" fill="black"/>
<path fill-rule="evenodd" clip-rule="evenodd" d="M123.572 12.1241H119.065C118.795 12.1241 118.576 12.345 118.576 12.6145V18.5213C118.576 18.7946 118.795 19.0155 119.065 19.0155H123.572C123.842 19.0155 124.06 18.7946 124.06 18.5213V12.6145C124.06 12.345 123.842 12.1241 123.572 12.1241ZM119.553 13.1086H123.084V18.0272H119.553V13.1086Z" fill="black"/>
<path fill-rule="evenodd" clip-rule="evenodd" d="M114.261 19.5097V2.17478C115.726 2.2721 119.398 2.73252 122.374 4.0202C123.132 4.3496 123.842 4.72767 124.453 5.16937L124.101 4.3496L123.78 3.6047C123.45 3.42876 123.107 3.26781 122.755 3.11433C119.198 1.57586 114.69 1.16785 113.777 1.16785C113.507 1.16785 113.289 1.3887 113.289 1.66195V19.5696C113.289 19.6108 113.296 19.6557 113.307 19.7006L114.317 23.4476L114.79 23.3316L115.26 23.2155L114.261 19.5097Z" fill="black"/>
<path fill-rule="evenodd" clip-rule="evenodd" d="M17.5797 36.6237V36.1483V34.7296C17.5797 34.4601 17.3615 34.2393 17.0952 34.2393C16.8253 34.2393 16.6071 34.4601 16.6071 34.7296V36.1483V36.6237C16.6071 36.6349 16.6071 36.6499 16.6071 36.6649C16.6293 36.9157 16.8401 37.1178 17.0952 37.1178C17.3504 37.1178 17.5612 36.9157 17.5797 36.6649C17.5797 36.6499 17.5797 36.6349 17.5797 36.6237Z" fill="black"/>
<path fill-rule="evenodd" clip-rule="evenodd" d="M18.0347 33.5692C18.0717 33.5992 18.1087 33.6329 18.142 33.6703C18.2566 33.7826 18.3491 33.9174 18.423 34.0634C18.5192 34.2655 18.5746 34.4901 18.5746 34.7297C18.5746 35.1452 18.4119 35.5232 18.142 35.7927C17.9867 35.95 17.7944 36.0735 17.5799 36.1483V36.6237C17.5799 36.635 17.5799 36.6499 17.5799 36.6649C17.5614 36.9157 17.3506 37.1178 17.0955 37.1178C16.8403 37.1178 16.6295 36.9157 16.6074 36.6649C16.6074 36.6499 16.6074 36.635 16.6074 36.6237V36.1483C16.3929 36.0735 16.2006 35.95 16.0453 35.7927C15.779 35.5232 15.6126 35.1452 15.6126 34.7297C15.6126 34.4901 15.6681 34.2655 15.7679 34.0634C15.8382 33.9174 15.9343 33.7826 16.0453 33.6703C16.0823 33.6329 16.1155 33.5992 16.1562 33.5692C16.4114 33.3596 16.7368 33.2324 17.0955 33.2324C17.4505 33.2324 17.7796 33.3596 18.0347 33.5692ZM18.8298 32.9741C18.386 32.5249 17.7722 32.2441 17.0955 32.2441C16.4188 32.2441 15.8049 32.5249 15.3575 32.9741C15.3242 33.0078 15.2946 33.0415 15.265 33.0751C15.1319 33.2249 15.0173 33.3896 14.9248 33.5692C14.8435 33.7227 14.7769 33.8912 14.7288 34.0634C14.6697 34.2767 14.6401 34.5013 14.6401 34.7297C14.6401 35.4147 14.9137 36.036 15.3612 36.489C15.8049 36.9382 16.4188 37.2189 17.0955 37.2189C17.7722 37.2189 18.386 36.9382 18.8298 36.489C19.2772 36.036 19.5509 35.4147 19.5509 34.7297C19.5509 34.5013 19.5176 34.2767 19.4584 34.0634C19.414 33.8912 19.3475 33.7227 19.2661 33.5692C19.17 33.3896 19.0591 33.2249 18.9259 33.0751C18.8963 33.0415 18.8631 33.0078 18.8298 32.9741Z" fill="black"/>
<path fill-rule="evenodd" clip-rule="evenodd" d="M25.6489 33.0751C25.5158 33.2249 25.4012 33.3896 25.3087 33.5692C25.2274 33.7227 25.1608 33.8912 25.1127 34.0634C25.0536 34.2767 25.024 34.5013 25.024 34.7297C25.024 35.4147 25.2976 36.036 25.7451 36.489C26.1888 36.9382 26.8027 37.2189 27.4794 37.2189C28.1561 37.2189 28.7699 36.9382 29.2137 36.489C29.6611 36.036 29.9348 35.4147 29.9348 34.7297C29.9348 34.5013 29.9015 34.2767 29.8423 34.0634C29.798 33.8912 29.7314 33.7227 29.65 33.5692C29.5539 33.3896 29.443 33.2249 29.3098 33.0751C29.2803 33.0415 29.247 33.0078 29.2137 32.9741C28.7699 32.5249 28.1561 32.2441 27.4794 32.2441C26.8027 32.2441 26.1888 32.5249 25.7414 32.9741C25.7081 33.0078 25.6785 33.0415 25.6489 33.0751ZM26.5401 33.5692C26.7953 33.3596 27.1207 33.2324 27.4794 33.2324C27.8344 33.2324 28.1598 33.3596 28.4186 33.5692C28.4556 33.5992 28.4926 33.6329 28.5259 33.6703C28.6405 33.7826 28.733 33.9174 28.8069 34.0634C28.9031 34.2655 28.9585 34.4901 28.9585 34.7297C28.9585 35.1452 28.7958 35.5232 28.5259 35.7927C28.3706 35.95 28.1783 36.0735 27.9638 36.1483V36.6237C27.9638 36.635 27.9638 36.6499 27.9638 36.6649C27.9453 36.9157 27.7345 37.1178 27.4794 37.1178C27.2242 37.1178 27.0134 36.9157 26.9913 36.6649C26.9913 36.6499 26.9913 36.635 26.9913 36.6237V36.1483C26.7768 36.0735 26.5845 35.95 26.4292 35.7927C26.1629 35.5232 25.9965 35.1452 25.9965 34.7297C25.9965 34.4901 26.052 34.2655 26.1518 34.0634C26.2221 33.9174 26.3182 33.7826 26.4292 33.6703C26.4662 33.6329 26.4994 33.5992 26.5401 33.5692Z" fill="black"/>
<path fill-rule="evenodd" clip-rule="evenodd" d="M26.9912 34.7296V36.1483V36.6237C26.9912 36.6349 26.9912 36.6499 26.9912 36.6649C27.0134 36.9157 27.2242 37.1178 27.4793 37.1178C27.7345 37.1178 27.9453 36.9157 27.9638 36.6649C27.9638 36.6499 27.9638 36.6349 27.9638 36.6237V36.1483V34.7296C27.9638 34.4601 27.7456 34.2393 27.4793 34.2393C27.2094 34.2393 26.9912 34.4601 26.9912 34.7296Z" fill="black"/>
</svg>
